<svg xmlns="http://www.w3.org/2000/svg" width="1600" height="1000" viewBox="0 0 1600 1000" role="img" aria-label=""><defs><marker id="arrow" markerWidth="10" markerHeight="10" refX="8" refY="3" orient="auto"><path d="M0,0 L8,3 L0,6" fill="#60787c"/></marker></defs><rect x="0" y="0" width="1600" height="1000" rx="0" fill="#f4f7f6" stroke="none"/><text x="58" y="46" font-family="Inter, DejaVu Sans, sans-serif" font-size="14" font-weight="700" fill="#0b6e61" text-anchor="start">COUNTER POS / WF-02</text><text x="58" y="91" font-family="Inter, DejaVu Sans, sans-serif" font-size="34" font-weight="650" fill="#17333b" text-anchor="start">Tablet selling workspace</text><text x="58" y="124" font-family="Inter, DejaVu Sans, sans-serif" font-size="17" font-weight="400" fill="#536a73" text-anchor="start">Compact navigation; keep a readable order panel in landscape.</text><rect x="140" y="166" width="1320" height="657" rx="20" fill="#fff" stroke="#b9c8c3"/><line x1="140" y1="231" x2="1460" y2="231" stroke="#cdd8d5" stroke-width="2"/><text x="169" y="207" font-family="Inter, DejaVu Sans, sans-serif" font-size="22" font-weight="600" fill="#17333b" text-anchor="start">COUNTER / SELL</text><text x="1175" y="207" font-family="Inter, DejaVu Sans, sans-serif" font-size="17" font-weight="400" fill="#17333b" text-anchor="start">Online · Cashier</text><rect x="142" y="233" width="84" height="587" rx="0" fill="#eef2f0" stroke="none"/><rect x="158" y="255" width="51" height="49" rx="8" fill="#dde5e1" stroke="none"/><text x="182" y="322" font-family="Inter, DejaVu Sans, sans-serif" font-size="13" font-weight="400" fill="#17333b" text-anchor="middle">Sell</text><rect x="158" y="346" width="51" height="49" rx="8" fill="#dde5e1" stroke="none"/><text x="182" y="413" font-family="Inter, DejaVu Sans, sans-serif" font-size="13" font-weight="400" fill="#17333b" text-anchor="middle">Items</text><rect x="158" y="437" width="51" height="49" rx="8" fill="#dde5e1" stroke="none"/><text x="182" y="504" font-family="Inter, DejaVu Sans, sans-serif" font-size="13" font-weight="400" fill="#17333b" text-anchor="middle">Stock</text><rect x="158" y="528" width="51" height="49" rx="8" fill="#dde5e1" stroke="none"/><text x="182" y="595" font-family="Inter, DejaVu Sans, sans-serif" font-size="13" font-weight="400" fill="#17333b" text-anchor="middle">Sales</text><rect x="249" y="252" width="735" height="42" rx="7" fill="#f8faf9" stroke="#ced8d4"/><text x="262" y="279" font-family="Inter, DejaVu Sans, sans-serif" font-size="15" font-weight="400" fill="#708589" text-anchor="start">Search / scan</text><line x1="1011" y1="231" x2="1011" y2="823" stroke="#cdd8d5" stroke-width="2"/><rect x="249" y="320" width="230" height="193" rx="12" fill="#fff" stroke="#c9d5cf"/><rect x="261" y="332" width="206" height="119" rx="12" fill="#e7ece9" stroke="none"/><text x="264" y="479" font-family="Inter, DejaVu Sans, sans-serif" font-size="17" font-weight="400" fill="#17333b" text-anchor="start">Product</text><text x="264" y="502" font-family="Inter, DejaVu Sans, sans-serif" font-size="15" font-weight="600" fill="#17333b" text-anchor="start">S$0.00</text><rect x="498" y="320" width="230" height="193" rx="12" fill="#fff" stroke="#c9d5cf"/><rect x="510" y="332" width="206" height="119" rx="12" fill="#e7ece9" stroke="none"/><text x="513" y="479" font-family="Inter, DejaVu Sans, sans-serif" font-size="17" font-weight="400" fill="#17333b" text-anchor="start">Product</text><text x="513" y="502" font-family="Inter, DejaVu Sans, sans-serif" font-size="15" font-weight="600" fill="#17333b" text-anchor="start">S$0.00</text><rect x="747" y="320" width="230" height="193" rx="12" fill="#fff" stroke="#c9d5cf"/><rect x="759" y="332" width="206" height="119" rx="12" fill="#e7ece9" stroke="none"/><text x="762" y="479" font-family="Inter, DejaVu Sans, sans-serif" font-size="17" font-weight="400" fill="#17333b" text-anchor="start">Product</text><text x="762" y="502" font-family="Inter, DejaVu Sans, sans-serif" font-size="15" font-weight="600" fill="#17333b" text-anchor="start">S$0.00</text><rect x="249" y="536" width="230" height="193" rx="12" fill="#fff" stroke="#c9d5cf"/><rect x="261" y="548" width="206" height="119" rx="12" fill="#e7ece9" stroke="none"/><text x="264" y="695" font-family="Inter, DejaVu Sans, sans-serif" font-size="17" font-weight="400" fill="#17333b" text-anchor="start">Product</text><text x="264" y="718" font-family="Inter, DejaVu Sans, sans-serif" font-size="15" font-weight="600" fill="#17333b" text-anchor="start">S$0.00</text><rect x="498" y="536" width="230" height="193" rx="12" fill="#fff" stroke="#c9d5cf"/><rect x="510" y="548" width="206" height="119" rx="12" fill="#e7ece9" stroke="none"/><text x="513" y="695" font-family="Inter, DejaVu Sans, sans-serif" font-size="17" font-weight="400" fill="#17333b" text-anchor="start">Product</text><text x="513" y="718" font-family="Inter, DejaVu Sans, sans-serif" font-size="15" font-weight="600" fill="#17333b" text-anchor="start">S$0.00</text><rect x="747" y="536" width="230" height="193" rx="12" fill="#fff" stroke="#c9d5cf"/><rect x="759" y="548" width="206" height="119" rx="12" fill="#e7ece9" stroke="none"/><text x="762" y="695" font-family="Inter, DejaVu Sans, sans-serif" font-size="17" font-weight="400" fill="#17333b" text-anchor="start">Product</text><text x="762" y="718" font-family="Inter, DejaVu Sans, sans-serif" font-size="15" font-weight="600" fill="#17333b" text-anchor="start">S$0.00</text><text x="1040" y="282" font-family="Inter, DejaVu Sans, sans-serif" font-size="23" font-weight="600" fill="#17333b" text-anchor="start">Current order</text><rect x="1040" y="309" width="375" height="87" rx="12" fill="#f3f6f4" stroke="#d8e1dc"/><text x="1056" y="340" font-family="Inter, DejaVu Sans, sans-serif" font-size="17" font-weight="400" fill="#17333b" text-anchor="start">Item / quantity / price</text><rect x="1040" y="414" width="375" height="87" rx="12" fill="#f3f6f4" stroke="#d8e1dc"/><text x="1056" y="445" font-family="Inter, DejaVu Sans, sans-serif" font-size="17" font-weight="400" fill="#17333b" text-anchor="start">Item / quantity / price</text><rect x="1040" y="519" width="375" height="87" rx="12" fill="#f3f6f4" stroke="#d8e1dc"/><text x="1056" y="550" font-family="Inter, DejaVu Sans, sans-serif" font-size="17" font-weight="400" fill="#17333b" text-anchor="start">Item / quantity / price</text><text x="1040" y="681" font-family="Inter, DejaVu Sans, sans-serif" font-size="20" font-weight="400" fill="#17333b" text-anchor="start">Total</text><text x="1415" y="681" font-family="Inter, DejaVu Sans, sans-serif" font-size="26" font-weight="650" fill="#17333b" text-anchor="end">S$14.00</text><rect x="1040" y="722" width="375" height="57" rx="7" fill="#52666b" stroke="#cad5d1"/><text x="1227.5" y="755.5" font-family="Inter, DejaVu Sans, sans-serif" font-size="16" font-weight="500" fill="#fff" text-anchor="middle">Take payment</text><text x="65" y="868" font-family="Inter, DejaVu Sans, sans-serif" font-size="17" font-weight="400" fill="#536a73" text-anchor="start">Keep at least 44px action targets. At narrower portrait widths, switch to mobile order navigation.</text><line x1="58" y1="943" x2="1542" y2="943" stroke="#cdd8d5" stroke-width="2"/><text x="58" y="973" font-family="Inter, DejaVu Sans, sans-serif" font-size="13" font-weight="400" fill="#647d80" text-anchor="start">Proposed V1 · Design contract, not a deployed application · 02 October 2026</text></svg>